<svg width="1488" height="479" viewBox="0 0 1488 479" fill="none" xmlns="http://www.w3.org/2000/svg">
<g filter="url(#filter0_d)">
<rect x="13" y="7" width="453" height="453" rx="101.155" fill="white"/>
<rect x="13" y="7" width="453" height="453" rx="101.155" fill="url(#paint0_linear)"/>
</g>
<g filter="url(#filter1_d)">
<path d="M315.727 121.687C341.658 146.468 357.71 192.233 349.772 231.403C341.658 270.773 309.553 303.748 271.274 326.33C232.819 348.913 188.366 361.104 163.493 341.719C138.621 322.334 133.681 271.572 134.563 232.003C135.445 192.233 142.325 163.855 157.319 141.672C172.313 119.689 195.245 103.901 224.704 98.3054C253.987 92.5098 289.796 96.7066 315.727 121.687Z" fill="#F63B89"/>
</g>
<g opacity="0.5" filter="url(#filter2_d)">
<path d="M353.662 132.865C372.018 145.665 364.941 181.686 364.941 217.524C364.941 253.545 372.018 289.383 353.884 316.81C335.529 344.054 292.184 362.887 261.887 351.734C231.811 340.763 214.783 300.171 185.371 272.744C155.959 245.499 113.941 231.42 98.2396 204.542C82.5383 177.663 93.1533 137.619 122.566 124.82C151.978 112.021 200.409 126.283 246.186 128.294C291.963 130.306 335.529 120.066 353.662 132.865Z" fill="#00C2FF"/>
</g>
<mask id="mask0" mask-type="alpha" maskUnits="userSpaceOnUse" x="134" y="96" width="218" height="256">
<path d="M315.727 121.687C341.658 146.468 357.71 192.233 349.772 231.403C341.658 270.773 309.553 303.748 271.274 326.33C232.819 348.913 188.366 361.104 163.493 341.719C138.621 322.334 133.681 271.572 134.563 232.003C135.445 192.233 142.325 163.855 157.319 141.672C172.313 119.689 195.245 103.901 224.704 98.3054C253.987 92.5098 289.796 96.7066 315.727 121.687Z" fill="white"/>
</mask>
<g mask="url(#mask0)">
<path d="M353.662 132.865C372.018 145.665 364.941 181.686 364.941 217.524C364.941 253.545 372.018 289.383 353.884 316.81C335.529 344.054 292.184 362.887 261.887 351.734C231.811 340.763 214.783 300.171 185.371 272.744C155.959 245.499 113.941 231.42 98.2396 204.542C82.5383 177.663 93.1533 137.619 122.566 124.82C151.978 112.021 200.409 126.283 246.186 128.294C291.963 130.306 335.529 120.066 353.662 132.865Z" fill="#4B80AC"/>
</g>
<path d="M575.624 289H668.544V263.697H606.314V143.842H575.624V289ZM688.302 289H718.495V180.132H688.302V289ZM703.469 166.098C712.471 166.098 719.842 159.223 719.842 150.788C719.842 142.425 712.471 135.55 703.469 135.55C694.539 135.55 687.167 142.425 687.167 150.788C687.167 159.223 694.539 166.098 703.469 166.098ZM772.876 226.061C772.947 212.027 781.311 203.805 793.502 203.805C805.622 203.805 812.922 211.743 812.852 225.068V289H843.045V219.682C843.045 194.307 828.161 178.714 805.48 178.714C789.32 178.714 777.625 186.652 772.735 199.34H771.459V180.132H742.683V289H772.876V226.061ZM916.457 291.126C943.391 291.126 961.535 278.014 965.788 257.814L937.862 255.971C934.814 264.264 927.018 268.587 916.953 268.587C901.856 268.587 892.288 258.593 892.288 242.362V242.292H966.426V233.999C966.426 197.001 944.029 178.714 915.252 178.714C883.215 178.714 862.448 201.466 862.448 235.062C862.448 269.579 882.932 291.126 916.457 291.126ZM892.288 223.58C892.926 211.176 902.352 201.253 915.748 201.253C928.861 201.253 937.933 210.609 938.004 223.58H892.288ZM986.13 289H1016.32V227.407C1016.32 214.011 1026.11 204.797 1039.43 204.797C1043.61 204.797 1049.35 205.506 1052.19 206.427V179.636C1049.49 178.998 1045.74 178.572 1042.69 178.572C1030.5 178.572 1020.51 185.66 1016.54 199.127H1015.4V180.132H986.13V289ZM1072.97 290.843C1082.05 290.843 1089.91 283.259 1089.98 273.832C1089.91 264.547 1082.05 256.963 1072.97 256.963C1063.62 256.963 1055.89 264.547 1055.96 273.832C1055.89 283.259 1063.62 290.843 1072.97 290.843ZM1145.82 291.055C1161.91 291.055 1172.33 284.039 1177.64 273.903H1178.49V289H1207.13V215.571C1207.13 189.629 1185.15 178.714 1160.91 178.714C1134.83 178.714 1117.68 191.189 1113.5 211.034L1141.42 213.303C1143.48 206.073 1149.93 200.757 1160.77 200.757C1171.05 200.757 1176.93 205.931 1176.93 214.862V215.287C1176.93 222.304 1169.49 223.225 1150.57 225.068C1129.02 227.053 1109.67 234.282 1109.67 258.593C1109.67 280.14 1125.05 291.055 1145.82 291.055ZM1154.46 270.217C1145.18 270.217 1138.52 265.894 1138.52 257.601C1138.52 249.096 1145.53 244.914 1156.17 243.426C1162.76 242.504 1173.53 240.945 1177.15 238.535V250.088C1177.15 261.499 1167.72 270.217 1154.46 270.217ZM1230.55 289H1260.75V180.132H1230.55V289ZM1245.72 166.098C1254.72 166.098 1262.09 159.223 1262.09 150.788C1262.09 142.425 1254.72 135.55 1245.72 135.55C1236.79 135.55 1229.42 142.425 1229.42 150.788C1229.42 159.223 1236.79 166.098 1245.72 166.098Z" fill="url(#paint1_radial)"/>
<defs>
<filter id="filter0_d" x="0.90534" y="0.95267" width="477.189" height="477.189" filterUnits="userSpaceOnUse" color-interpolation-filters="sRGB">
<feFlood flood-opacity="0" result="BackgroundImageFix"/>
<feColorMatrix in="SourceAlpha" type="matrix" values="0 0 0 0 0 0 0 0 0 0 0 0 0 0 0 0 0 0 127 0"/>
<feOffset dy="6.04733"/>
<feGaussianBlur stdDeviation="6.04733"/>
<feColorMatrix type="matrix" values="0 0 0 0 0 0 0 0 0 0 0 0 0 0 0 0 0 0 0.28 0"/>
<feBlend mode="normal" in2="BackgroundImageFix" result="effect1_dropShadow"/>
<feBlend mode="normal" in="SourceGraphic" in2="effect1_dropShadow" result="shape"/>
</filter>
<filter id="filter1_d" x="106.525" y="62" width="291.343" height="329.378" filterUnits="userSpaceOnUse" color-interpolation-filters="sRGB">
<feFlood flood-opacity="0" result="BackgroundImageFix"/>
<feColorMatrix in="SourceAlpha" type="matrix" values="0 0 0 0 0 0 0 0 0 0 0 0 0 0 0 0 0 0 127 0"/>
<feOffset dx="9.05594" dy="3"/>
<feGaussianBlur stdDeviation="18.5"/>
<feColorMatrix type="matrix" values="0 0 0 0 0 0 0 0 0 0 0 0 0 0 0 0 0 0 0.2 0"/>
<feBlend mode="normal" in2="BackgroundImageFix" result="effect1_dropShadow"/>
<feBlend mode="normal" in="SourceGraphic" in2="effect1_dropShadow" result="shape"/>
</filter>
<filter id="filter2_d" x="76.5105" y="110.489" width="322.392" height="282.545" filterUnits="userSpaceOnUse" color-interpolation-filters="sRGB">
<feFlood flood-opacity="0" result="BackgroundImageFix"/>
<feColorMatrix in="SourceAlpha" type="matrix" values="0 0 0 0 0 0 0 0 0 0 0 0 0 0 0 0 0 0 127 0"/>
<feOffset dx="9.05594" dy="14.4895"/>
<feGaussianBlur stdDeviation="11.7727"/>
<feColorMatrix type="matrix" values="0 0 0 0 0 0 0 0 0 0 0 0 0 0 0 0 0 0 0.25 0"/>
<feBlend mode="normal" in2="BackgroundImageFix" result="effect1_dropShadow"/>
<feBlend mode="normal" in="SourceGraphic" in2="effect1_dropShadow" result="shape"/>
</filter>
<linearGradient id="paint0_linear" x1="239.5" y1="7" x2="239.5" y2="460" gradientUnits="userSpaceOnUse">
<stop stop-opacity="0"/>
<stop offset="1" stop-opacity="0.2"/>
</linearGradient>
<radialGradient id="paint1_radial" cx="0" cy="0" r="1" gradientUnits="userSpaceOnUse" gradientTransform="translate(838.663 272.551) rotate(50.8164) scale(274.663 960.385)">
<stop stop-color="#2098FF"/>
<stop offset="1" stop-color="#FF4493"/>
</radialGradient>
</defs>
</svg>
