<svg xmlns="http://www.w3.org/2000/svg" width="38" height="38" viewBox="0 0 38 38"><g><g><g><path fill="none" stroke="#ffffff" stroke-linecap="round" stroke-linejoin="round" stroke-miterlimit="20" stroke-width="2" d="M23.7 23.999l-2.771 3.464a29.23 29.23 0 0 1-10.391-10.39l3.464-2.77a2.354 2.354 0 0 0 .68-2.794L11.524 4.4a2.354 2.354 0 0 0-2.745-1.323l-6.01 1.56A2.369 2.369 0 0 0 1.022 7.25C3.19 22.682 15.32 34.81 30.751 36.977a2.367 2.367 0 0 0 2.614-1.746l1.56-6.01a2.356 2.356 0 0 0-1.323-2.744l-7.11-3.157a2.354 2.354 0 0 0-2.792.679z"/></g><g><path fill="none" stroke="#ffffff" stroke-linecap="round" stroke-linejoin="round" stroke-miterlimit="20" stroke-width="2" d="M28.5 6v6"/></g><g><path fill="none" stroke="#ffffff" stroke-linecap="round" stroke-linejoin="round" stroke-miterlimit="20" stroke-width="2" d="M26 9.5h6"/></g><g><path fill="none" stroke="#ffffff" stroke-linecap="round" stroke-linejoin="round" stroke-miterlimit="20" stroke-width="2" d="M28.499 1a8.455 8.455 0 0 0-7.68 12.086L20 18v0l4.913-.819A8.489 8.489 0 0 0 36.398 6.352 8.49 8.49 0 0 0 28.498 1z"/></g></g></g></svg>