<svg xmlns="http://www.w3.org/2000/svg" width="40" height="37" viewBox="0 0 40 37"><g><g><g><path fill="none" stroke="#ffffff" stroke-linecap="round" stroke-linejoin="round" stroke-miterlimit="20" stroke-width="2" d="M33 5.604c-.002-1.995-1.323-3.758-3.263-4.359-1.941-.6-4.055.101-5.225 1.733-1.016-1.444-2.786-2.192-4.555-1.924-1.77.267-3.227 1.502-3.752 3.18a4.515 4.515 0 0 0 1.287 4.695L24.512 16v0l7.02-7.071A4.513 4.513 0 0 0 33 5.604z"/></g><g><path fill="none" stroke="#ffffff" stroke-linecap="round" stroke-linejoin="round" stroke-miterlimit="20" stroke-width="2" d="M31.234 23.989v0l3.77-2.19a2.619 2.619 0 0 1 3.592.98l.03.054a2.773 2.773 0 0 1-.604 3.504l-7.012 5.867c-.419.352-.915.597-1.446.716L16.26 35.917a3.417 3.417 0 0 1-2.665-.506l-8.269-5.58a3.422 3.422 0 0 0-1.917-.588H1v0-10.51 0l6.133-.69a6.815 6.815 0 0 1 3.19.404l4.72 1.794c.427.163.87.282 1.32.356l8.832 1.453c1.456.106 2.584 1.335 2.584 2.814v0c0 1.48-1.129 2.709-2.585 2.815l-9.509.688v0"/></g></g></g></svg>