<svg xmlns="http://www.w3.org/2000/svg" width="41" height="41" viewBox="0 0 41 41"><g><g><g><path fill="#473bf0" d="M33.028 20.5a3.412 3.412 0 0 1-3.417-3.417 3.412 3.412 0 0 1 3.417-3.416 3.412 3.412 0 0 1 3.416 3.416 3.412 3.412 0 0 1-3.416 3.417zm-6.834-9.111a3.412 3.412 0 0 1-3.416-3.417 3.412 3.412 0 0 1 3.416-3.416 3.412 3.412 0 0 1 3.417 3.416 3.412 3.412 0 0 1-3.417 3.417zm-11.388 0a3.412 3.412 0 0 1-3.417-3.417 3.412 3.412 0 0 1 3.417-3.416 3.412 3.412 0 0 1 3.416 3.416 3.412 3.412 0 0 1-3.416 3.417zM7.972 20.5a3.412 3.412 0 0 1-3.416-3.417 3.412 3.412 0 0 1 3.416-3.416 3.412 3.412 0 0 1 3.417 3.416A3.412 3.412 0 0 1 7.972 20.5zM20.5 0C9.18 0 0 9.18 0 20.5S9.18 41 20.5 41a3.412 3.412 0 0 0 3.417-3.417 3.34 3.34 0 0 0-.889-2.289 3.385 3.385 0 0 1-.854-2.266 3.412 3.412 0 0 1 3.417-3.417h4.02C35.898 29.611 41 24.51 41 18.222 41 8.154 31.82 0 20.5 0z"/></g></g></g></svg>