<svg xmlns="http://www.w3.org/2000/svg" width="37" height="37" viewBox="0 0 37 37"><g><g><g><path fill="#d5d7dd" d="M18.5 0c-.483 0-.804.322-.804.804V5.63c0 .483.321.805.804.805.483 0 .804-.322.804-.805V1.61C28.233 2.01 35.391 9.41 35.391 18.5c0 9.33-7.56 16.891-16.891 16.891-9.33 0-16.891-7.56-16.891-16.891 0-.483-.322-.804-.805-.804-.482 0-.804.321-.804.804C0 28.715 8.285 37 18.5 37S37 28.715 37 18.5 28.715 0 18.5 0z"/></g><g><path fill="#68d585" d="M15.252 20.805c.721.717 1.762 1.195 2.804 1.195 1.04 0 2.082-.398 2.803-1.195 1.521-1.513 1.521-4.062 0-5.655-1.282-1.275-11.453-7.328-12.654-8.045-.32-.16-.721-.16-.961.159a.844.844 0 0 0-.16.956c.8 1.195 6.887 11.31 8.168 12.585z"/></g></g></g></svg>