<svg xmlns="http://www.w3.org/2000/svg" width="34" height="34" viewBox="0 0 34 34"><g><g><g opacity=".4"><path fill="#473bf0" d="M20.3 19h-5.6c-.386 0-.7.336-.7.75v13.5c0 .414.314.75.7.75h5.6c.386 0 .7-.336.7-.75v-13.5c0-.414-.314-.75-.7-.75z"/></g><g opacity=".3"><path fill="#473bf0" d="M6.3 27H.7a.7.7 0 0 0-.7.7v5.6a.7.7 0 0 0 .7.7h5.6a.7.7 0 0 0 .7-.7v-5.6a.7.7 0 0 0-.7-.7z"/></g><g opacity=".7"><path fill="#473bf0" d="M33.3 12h-5.6c-.386 0-.7.329-.7.733v20.534c0 .404.314.733.7.733h5.6c.386 0 .7-.329.7-.733V12.733c0-.404-.314-.733-.7-.733z"/></g><g><path fill="#473bf0" d="M17.4 11.532l9.117-9.026v4.836c0 .405.332.734.741.734.41 0 .742-.329.742-.734V.734A.738.738 0 0 0 27.258 0h-6.675a.738.738 0 0 0-.742.734c0 .405.333.734.742.734h4.885l-8.593 8.506-5.41-5.354a.746.746 0 0 0-1.048 0L3 11.962 4.049 13l6.892-6.823 5.41 5.355a.746.746 0 0 0 1.048 0z"/></g></g></g></svg>