<svg xmlns="http://www.w3.org/2000/svg" width="37" height="38" viewBox="0 0 37 38"><g><g><g><path fill="#473bf0" d="M17 21c5.069 0 9-5.644 9-10.5V8.885C26 3.986 21.962 0 17 0S8 3.986 8 8.885V10.5C8 15.356 11.931 21 17 21z"/></g><g opacity=".5"><path fill="#473bf0" d="M37 28.736L36.528 23l-1.725 1.984a6.236 6.236 0 0 0-4.205-1.629c-3.514 0-6.39 2.944-6.598 6.645h1.558c.213-2.74 2.432-4.98 5.04-4.98 1.169 0 2.264.425 3.14 1.189l-1.944 2.235z"/></g><g opacity=".5"><path fill="#473bf0" d="M35.443 31c-.213 2.74-2.432 4.98-5.04 4.98a4.749 4.749 0 0 1-3.14-1.189l1.944-2.235L24 32.264 24.472 38l1.725-1.984a6.236 6.236 0 0 0 4.205 1.629c3.514 0 6.39-2.944 6.598-6.645z"/></g><g><path fill="#473bf0" d="M22.044 31.2c0-2.585 1.145-4.902 2.956-6.512A45.513 45.513 0 0 0 17.146 24c-5.35 0-9.737.95-12.474 1.748C1.878 26.562 0 29.028 0 31.885V35.2c0 .442.365.8.816.8h21.228z"/></g></g></g></svg>