<svg xmlns="http://www.w3.org/2000/svg" width="35" height="38" viewBox="0 0 35 38"><g><g><g><path fill="#473bf0" d="M18 21.357c-3.828 0-7.936-3.73-8.297-9.813.54.078 1.075.13 1.606.13 3.109 0 6.038-1.112 8.334-3.144a12.57 12.57 0 0 0 6.655 3.017c-.363 6.08-4.47 9.81-8.298 9.81zM18 0C11.823 0 8 5.543 8 10.679 8 18.289 13.19 23 18 23s10-4.71 10-12.321C28 5.543 24.177 0 18 0z"/></g><g opacity=".5"><path fill="#473bf0" d="M32.977 27.183L24.313 22c-2.031 1.748-4.459 2.709-6.813 2.709s-4.782-.961-6.813-2.709l-8.664 5.183A4.171 4.171 0 0 0 0 30.743v6.426c0 .46.373.831.833.831h15.834v-8.307c0-.46.372-.83.833-.83.46 0 .833.37.833.83V38h15.834c.46 0 .833-.371.833-.83v-6.426c0-1.45-.775-2.815-2.023-3.561z"/></g></g></g></svg>