<svg xmlns="http://www.w3.org/2000/svg" width="36" height="34" viewBox="0 0 36 34"><g><g><g opacity=".5"><path fill="#68d585" d="M34.164 16c-1.502 6.757-8.766 11.899-17.48 11.899-1.235 0-2.468-.112-3.684-.323 2.988 2.587 7.613 3.892 12.394 3.185l6.398 3.159a.784.784 0 0 0 .751-.034.762.762 0 0 0 .367-.649V27.42c1.995-1.788 3.09-4.042 3.09-6.384 0-1.79-.647-3.52-1.836-5.035z"/></g><g><path fill="#68d585" d="M16.5 0C7.401 0 0 5.82 0 12.974c0 2.75 1.085 5.37 3.143 7.6v7.663c0 .265.141.51.372.65a.805.805 0 0 0 .765.033l7.33-3.56c1.6.39 3.242.587 4.89.587 9.099 0 16.5-5.82 16.5-12.973C33 5.82 25.599 0 16.5 0z"/></g></g></g></svg>