<svg xmlns="http://www.w3.org/2000/svg" width="47" height="32" viewBox="0 0 47 32"><g><g><g opacity=".4"><path fill="#68d585" d="M46.934 20.427l-6.794-10a.963.963 0 0 0-.795-.427h-3.882v8c0 2.761-2.173 5-4.853 5h-16.5v6c0 1.657 1.304 3 2.912 3h22.323c.317 0 .615-.16.796-.427l6.794-10a1.025 1.025 0 0 0 0-1.146z"/></g><g><path fill="#68d585" d="M30.198 22H7.874a.962.962 0 0 1-.795-.426l-6.794-10a1.025 1.025 0 0 1 0-1.146l6.794-10A.963.963 0 0 1 7.874 0h22.324c1.608 0 2.912 1.343 2.912 3v16c0 1.657-1.304 3-2.912 3z"/></g></g></g></svg>