<svg xmlns="http://www.w3.org/2000/svg" width="40" height="41" viewBox="0 0 40 41"><g><g><g opacity=".4"><path fill="#68d585" d="M9.841 7.568c-.597 0-1.081-.377-1.081-.841V.84C8.76.376 9.244 0 9.841 0s1.081.376 1.081.84v5.887c0 .464-.484.84-1.08.84z"/></g><g opacity=".4"><path fill="#68d585" d="M29.301 7.568c-.597 0-1.081-.377-1.081-.841V.84c0-.465.484-.841 1.081-.841s1.081.376 1.081.84v5.887c0 .464-.484.84-1.08.84z"/></g><g opacity=".4"><path fill="#68d585" d="M22.599 36.07H2.764a.883.883 0 0 1-.885-.882V14.903c0-.487.396-.882.885-.882h33.611c.489 0 .885.395.885.882V25.3c.646.422 1.24.919 1.769 1.48V6.084c0-.974-.792-1.764-1.77-1.764h-5.306v3.528a2.65 2.65 0 0 1-2.654 2.646 2.65 2.65 0 0 1-2.653-2.646V4.32H12.493v3.528a2.65 2.65 0 0 1-2.653 2.646 2.65 2.65 0 0 1-2.654-2.646V4.32H1.88C.902 4.32.11 5.11.11 6.084V36.07c0 .974.792 1.764 1.769 1.764h21.414a9.59 9.59 0 0 1-.694-1.764z"/></g><g><path fill="#68d585" d="M31.103 28.464a.9.9 0 1 1 1.8 0v3.603h3.602a.9.9 0 0 1 0 1.802h-4.502a.9.9 0 0 1-.9-.9zm.905 12.612a8.108 8.108 0 1 0 0-16.216 8.108 8.108 0 0 0 0 16.216z"/></g></g></g></svg>