<svg xmlns="http://www.w3.org/2000/svg" width="37" height="35" viewBox="0 0 37 35"><g><g><g><path fill="#68d585" d="M34.972 22.404a4.367 4.367 0 0 0-6.862.572 4.368 4.368 0 0 0-6.866-.567c-1.64 1.771-1.452 4.554.248 6.267l6.043 6.086a.81.81 0 0 0 1.147 0l6.045-6.086c1.704-1.714 1.889-4.502.245-6.272z"/></g><g opacity=".4"><path fill="#68d585" d="M14.277 21H5.943c-.46 0-.833-.448-.833-1s.372-1 .833-1h8.334c.46 0 .833.448.833 1s-.372 1-.833 1z"/></g><g opacity=".4"><path fill="#68d585" d="M35.501 7.412H1.72V3.294c0-.908.721-1.647 1.608-1.647h30.566c.887 0 1.608.739 1.608 1.647zM33.893 0H3.327C1.553 0 .11 1.477.11 3.294v21.412C.11 26.523 1.553 28 3.327 28h12.87v-1.647H3.327c-.887 0-1.608-.739-1.608-1.647V14H35.5v4.118h1.609V3.294C37.11 1.477 35.667 0 33.893 0z"/></g></g></g></svg>