<svg xmlns="http://www.w3.org/2000/svg" width="41" height="36" viewBox="0 0 41 36"><g><g><g opacity=".4"><path fill="#68d585" d="M38.816 25.509l-6.884-2.585a.894.894 0 0 1-.567-.72l-.352-2.552c2.463-1.437 3.99-4.13 3.997-7.051V7.265c-.002-2.443-1.77-4.5-4.119-4.793l-.76-1.571C29.766.167 28.935-.178 28.18.09l-4.694 1.732a6.575 6.575 0 0 0-3.376 3.135c2.269 1.95 3.578 4.841 3.573 7.89V14.4a15.077 15.077 0 0 0 2.178 6.603c.416.644.544 1.443.351 2.192a2.683 2.683 0 0 1-1.36 1.722c-.279.137-.568.253-.864.347l1.2.372c2.217.678 3.734 2.786 3.723 5.173V35.1a2.747 2.747 0 0 1-.16.9h11.488c.48 0 .871-.403.871-.9v-6.21c-.003-1.512-.92-2.862-2.294-3.381z"/></g><g><path fill="#68d585" d="M26.21 36H1.01c-.497 0-.9-.41-.9-.914v-4.36c-.007-1.617 1.039-3.045 2.566-3.503l5.973-1.82a.91.91 0 0 0 .63-.747l.146-1.028c-3.856.595-6.02-.475-6.12-.524a.911.911 0 0 1-.468-.583.926.926 0 0 1 .122-.743 16.766 16.766 0 0 0 2.551-7.72v-1.83A8.29 8.29 0 0 1 8.077 6.22a8.025 8.025 0 0 1 6.073-2.2c4.316.365 7.618 4.06 7.56 8.46v1.578a16.766 16.766 0 0 0 2.549 7.721.926.926 0 0 1 .121.743.911.911 0 0 1-.468.583c-.099.05-2.261 1.118-6.12.524l.146 1.028a.91.91 0 0 0 .63.747l5.976 1.82c1.527.458 2.573 1.886 2.566 3.503v4.36a.907.907 0 0 1-.9.914z"/></g></g></g></svg>