<svg xmlns="http://www.w3.org/2000/svg" width="40" height="40" viewBox="0 0 40 40"><g><g><g opacity=".4"><path fill="#68d585" d="M35.565 23.635a.91.91 0 0 0-.91.91V38.18H1.928V10.908h4.546a.91.91 0 0 0 0-1.818H1.019A.91.91 0 0 0 .11 10v29.09c0 .502.407.91.91.91h34.545a.91.91 0 0 0 .909-.91V24.545a.91.91 0 0 0-.91-.91z"/></g><g><path fill="#68d585" d="M39.806 12.95L25.261.224a.91.91 0 0 0-1.507.684v6.374C12.446 7.58 7.39 13.498 7.39 26.358a.909.909 0 0 0 .91.91.91.91 0 0 0 .726-.359c3.024-3.963 5.885-6.8 14.728-6.908v6.363a.909.909 0 0 0 1.507.684l14.545-12.724a.909.909 0 0 0 0-1.37z"/></g></g></g></svg>