<svg width="47" height="32" viewBox="0 0 47 32" fill="none" xmlns="http://www.w3.org/2000/svg">
<g clip-path="url(#clip0)">
<g opacity="0.9">
<path opacity="0.4" d="M46.934 20.427L40.14 10.427C40.0525 10.2963 39.9342 10.1891 39.7956 10.1146C39.657 10.0402 39.5023 10.0008 39.345 10H35.463V18C35.463 20.761 33.29 23 30.61 23H14.11V29C14.11 30.657 15.414 32 17.022 32H39.345C39.662 32 39.96 31.84 40.141 31.573L46.935 21.573C47.0492 21.4037 47.1101 21.2042 47.1101 21C47.1101 20.7958 47.0492 20.5963 46.935 20.427H46.934Z" fill="#F64B4B"/>
</g>
<path d="M30.198 22H7.87401C7.71678 21.9994 7.56209 21.9602 7.42349 21.8859C7.2849 21.8117 7.16662 21.7046 7.07901 21.574L0.285014 11.574C0.170873 11.4047 0.109894 11.2052 0.109894 11.001C0.109894 10.7968 0.170873 10.5973 0.285014 10.428L7.07901 0.428C7.16646 0.29712 7.28465 0.18967 7.42325 0.115055C7.56184 0.0404403 7.71661 0.000935933 7.87401 0L30.198 0C31.806 0 33.11 1.343 33.11 3V19C33.11 20.657 31.806 22 30.198 22Z" fill="#68D585"/>
</g>
<defs>
<clipPath id="clip0">
<rect width="47" height="32" fill="white"/>
</clipPath>
</defs>
</svg>
