<svg width="50" height="46" viewBox="0 0 50 46" fill="none" xmlns="http://www.w3.org/2000/svg">
<path d="M37.5 36C35.567 36 34 34.433 34 32.5L34 11.5C34 9.567 35.567 8 37.5 8V8C39.433 8 41 9.567 41 11.5L41 32.5C41 34.433 39.433 36 37.5 36V36Z" fill="#2EBB60"/>
<path d="M3.35928 46C1.504 46 0 44.496 0 42.6407L0 3.35928C0 1.504 1.504 0 3.35928 0V0C5.21456 0 6.71856 1.504 6.71856 3.35928L6.71856 42.6407C6.71856 44.496 5.21456 46 3.35928 46V46Z" fill="#FF4B4B"/>
<path d="M20 42C18.3431 42 17 40.6569 17 39L17 6C17 4.34315 18.3431 3 20 3V3C21.6569 3 23 4.34315 23 6L23 39C23 40.6569 21.6569 42 20 42V42Z" fill="#FF4B4B"/>
<path d="M11.7186 34C10.0617 34 8.71857 32.6569 8.71857 31L8.71857 13C8.71857 11.3431 10.0617 10 11.7186 10V10C13.3754 10 14.7186 11.3431 14.7186 13L14.7186 31C14.7186 32.6569 13.3754 34 11.7186 34V34Z" fill="#FF4B4B"/>
<path d="M28.491 29C26.8044 29 25.4371 27.6327 25.4371 25.9461L25.4371 18.0539C25.4371 16.3673 26.8044 15 28.491 15V15C30.1776 15 31.5449 16.3673 31.5449 18.0539L31.5449 25.9461C31.5449 27.6327 30.1776 29 28.491 29V29Z" fill="#FF4B4B"/>
<path d="M46.0539 25C44.3673 25 43 23.6327 43 21.9461V20.0539C43 18.3673 44.3673 17 46.0539 17V17C47.7405 17 49.1078 18.3673 49.1078 20.0539V21.9461C49.1078 23.6327 47.7405 25 46.0539 25V25Z" fill="#2EBB60"/>
</svg>
