<svg width="1865" height="492" viewBox="0 0 1865 492" fill="none" xmlns="http://www.w3.org/2000/svg">
<g filter="url(#filter0_d)">
<rect x="13" y="20" width="453" height="453" rx="101.155" fill="white"/>
<rect x="13" y="20" width="453" height="453" rx="101.155" fill="url(#paint0_linear)" fill-opacity="0.2"/>
</g>
<g filter="url(#filter1_d)">
<path d="M315.727 134.687C341.658 159.468 357.71 205.233 349.772 244.403C341.658 283.773 309.553 316.748 271.274 339.33C232.819 361.913 188.366 374.104 163.493 354.719C138.621 335.334 133.681 284.572 134.563 245.003C135.445 205.233 142.325 176.855 157.319 154.672C172.313 132.689 195.245 116.901 224.704 111.305C253.987 105.51 289.796 109.707 315.727 134.687Z" fill="#F63B89"/>
</g>
<g opacity="0.5" filter="url(#filter2_d)">
<path d="M353.662 145.865C372.018 158.665 364.941 194.686 364.941 230.524C364.941 266.545 372.018 302.383 353.884 329.81C335.529 357.054 292.184 375.887 261.887 364.734C231.811 353.763 214.783 313.171 185.371 285.744C155.959 258.499 113.941 244.42 98.2396 217.542C82.5383 190.663 93.1533 150.619 122.566 137.82C151.978 125.021 200.409 139.283 246.186 141.294C291.963 143.306 335.529 133.066 353.662 145.865Z" fill="#00C2FF"/>
</g>
<mask id="mask0" mask-type="alpha" maskUnits="userSpaceOnUse" x="134" y="109" width="218" height="256">
<path d="M315.727 134.687C341.658 159.468 357.71 205.233 349.772 244.403C341.658 283.773 309.553 316.748 271.274 339.33C232.819 361.913 188.366 374.104 163.493 354.719C138.621 335.334 133.681 284.572 134.563 245.003C135.445 205.233 142.325 176.855 157.319 154.672C172.313 132.689 195.245 116.901 224.704 111.305C253.987 105.51 289.796 109.707 315.727 134.687Z" fill="white"/>
</mask>
<g mask="url(#mask0)">
<path d="M353.662 145.865C372.018 158.665 364.941 194.686 364.941 230.524C364.941 266.545 372.018 302.383 353.884 329.81C335.529 357.054 292.184 375.887 261.887 364.734C231.811 353.763 214.783 313.171 185.371 285.744C155.959 258.499 113.941 244.42 98.2396 217.542C82.5383 190.663 93.1533 150.619 122.566 137.82C151.978 125.021 200.409 139.283 246.186 141.294C291.963 143.306 335.529 133.066 353.662 145.865Z" fill="#4B80AC"/>
</g>
<path d="M576.548 342H710.628V305.489H620.832V132.545H576.548V342ZM739.136 342H782.705V184.909H739.136V342ZM761.023 164.659C774.011 164.659 784.648 154.739 784.648 142.568C784.648 130.5 774.011 120.58 761.023 120.58C748.136 120.58 737.5 130.5 737.5 142.568C737.5 154.739 748.136 164.659 761.023 164.659ZM861.173 251.182C861.276 230.932 873.344 219.068 890.935 219.068C908.423 219.068 918.957 230.523 918.855 249.75V342H962.423V241.977C962.423 205.364 940.946 182.864 908.219 182.864C884.901 182.864 868.026 194.318 860.969 212.625H859.128V184.909H817.605V342H861.173V251.182ZM1068.35 345.068C1107.22 345.068 1133.4 326.148 1139.53 297L1099.24 294.341C1094.84 306.307 1083.59 312.545 1069.07 312.545C1047.28 312.545 1033.48 298.125 1033.48 274.705V274.602H1140.45V262.636C1140.45 209.25 1108.14 182.864 1066.61 182.864C1020.39 182.864 990.42 215.693 990.42 264.17C990.42 313.977 1019.98 345.068 1068.35 345.068ZM1033.48 247.602C1034.4 229.705 1048 215.386 1067.33 215.386C1086.25 215.386 1099.34 228.886 1099.44 247.602H1033.48ZM1168.89 342H1212.45V253.125C1212.45 233.795 1226.57 220.5 1245.8 220.5C1251.83 220.5 1260.11 221.523 1264.2 222.852V184.193C1260.32 183.273 1254.9 182.659 1250.5 182.659C1232.91 182.659 1218.49 192.886 1212.76 212.318H1211.12V184.909H1168.89V342ZM1294.2 344.659C1307.29 344.659 1318.64 333.716 1318.74 320.114C1318.64 306.716 1307.29 295.773 1294.2 295.773C1280.7 295.773 1269.55 306.716 1269.65 320.114C1269.55 333.716 1280.7 344.659 1294.2 344.659ZM1399.31 344.966C1422.52 344.966 1437.56 334.841 1445.23 320.216H1446.45V342H1487.77V236.045C1487.77 198.614 1456.07 182.864 1421.09 182.864C1383.45 182.864 1358.7 200.864 1352.67 229.5L1392.97 232.773C1395.93 222.341 1405.24 214.67 1420.89 214.67C1435.72 214.67 1444.2 222.136 1444.2 235.023V235.636C1444.2 245.761 1433.47 247.091 1406.16 249.75C1375.07 252.614 1347.15 263.045 1347.15 298.125C1347.15 329.216 1369.34 344.966 1399.31 344.966ZM1411.78 314.898C1398.39 314.898 1388.77 308.659 1388.77 296.693C1388.77 284.42 1398.9 278.386 1414.24 276.239C1423.75 274.909 1439.3 272.659 1444.51 269.182V285.852C1444.51 302.318 1430.91 314.898 1411.78 314.898ZM1521.57 342H1565.14V184.909H1521.57V342ZM1543.46 164.659C1556.45 164.659 1567.09 154.739 1567.09 142.568C1567.09 130.5 1556.45 120.58 1543.46 120.58C1530.57 120.58 1519.94 130.5 1519.94 142.568C1519.94 154.739 1530.57 164.659 1543.46 164.659Z" fill="white"/>
<defs>
<filter id="filter0_d" x="0.90534" y="13.9527" width="477.189" height="477.189" filterUnits="userSpaceOnUse" color-interpolation-filters="sRGB">
<feFlood flood-opacity="0" result="BackgroundImageFix"/>
<feColorMatrix in="SourceAlpha" type="matrix" values="0 0 0 0 0 0 0 0 0 0 0 0 0 0 0 0 0 0 127 0"/>
<feOffset dy="6.04733"/>
<feGaussianBlur stdDeviation="6.04733"/>
<feColorMatrix type="matrix" values="0 0 0 0 0 0 0 0 0 0 0 0 0 0 0 0 0 0 0.28 0"/>
<feBlend mode="normal" in2="BackgroundImageFix" result="effect1_dropShadow"/>
<feBlend mode="normal" in="SourceGraphic" in2="effect1_dropShadow" result="shape"/>
</filter>
<filter id="filter1_d" x="106.525" y="75" width="291.343" height="329.378" filterUnits="userSpaceOnUse" color-interpolation-filters="sRGB">
<feFlood flood-opacity="0" result="BackgroundImageFix"/>
<feColorMatrix in="SourceAlpha" type="matrix" values="0 0 0 0 0 0 0 0 0 0 0 0 0 0 0 0 0 0 127 0"/>
<feOffset dx="9.05594" dy="3"/>
<feGaussianBlur stdDeviation="18.5"/>
<feColorMatrix type="matrix" values="0 0 0 0 0 0 0 0 0 0 0 0 0 0 0 0 0 0 0.2 0"/>
<feBlend mode="normal" in2="BackgroundImageFix" result="effect1_dropShadow"/>
<feBlend mode="normal" in="SourceGraphic" in2="effect1_dropShadow" result="shape"/>
</filter>
<filter id="filter2_d" x="76.5105" y="123.489" width="322.392" height="282.545" filterUnits="userSpaceOnUse" color-interpolation-filters="sRGB">
<feFlood flood-opacity="0" result="BackgroundImageFix"/>
<feColorMatrix in="SourceAlpha" type="matrix" values="0 0 0 0 0 0 0 0 0 0 0 0 0 0 0 0 0 0 127 0"/>
<feOffset dx="9.05594" dy="14.4895"/>
<feGaussianBlur stdDeviation="11.7727"/>
<feColorMatrix type="matrix" values="0 0 0 0 0 0 0 0 0 0 0 0 0 0 0 0 0 0 0.25 0"/>
<feBlend mode="normal" in2="BackgroundImageFix" result="effect1_dropShadow"/>
<feBlend mode="normal" in="SourceGraphic" in2="effect1_dropShadow" result="shape"/>
</filter>
<linearGradient id="paint0_linear" x1="239.5" y1="20" x2="239.5" y2="473" gradientUnits="userSpaceOnUse">
<stop stop-opacity="0"/>
<stop offset="1" stop-opacity="0.2"/>
</linearGradient>
</defs>
</svg>
