<svg width="46" height="41" viewBox="0 0 46 41" fill="none" xmlns="http://www.w3.org/2000/svg">
<path d="M0 25.875C0 24.2872 1.28718 23 2.875 23H43.125C44.7128 23 46 24.2872 46 25.875V25.875C46 27.4628 44.7128 28.75 43.125 28.75H2.875C1.28718 28.75 0 27.4628 0 25.875V25.875ZM0 37.375C0 35.7872 1.28718 34.5 2.875 34.5H25.875C27.4628 34.5 28.75 35.7872 28.75 37.375V37.375C28.75 38.9628 27.4628 40.25 25.875 40.25H2.875C1.28718 40.25 0 38.9628 0 37.375V37.375Z" fill="#2EBB60"/>
<path d="M0 2.875C0 1.28718 1.28718 0 2.875 0H43.125C44.7128 0 46 1.28718 46 2.875V2.875C46 4.46282 44.7128 5.75 43.125 5.75H2.875C1.28718 5.75 0 4.46282 0 2.875V2.875ZM0 14.375C0 12.7872 1.28718 11.5 2.875 11.5H25.875C27.4628 11.5 28.75 12.7872 28.75 14.375V14.375C28.75 15.9628 27.4628 17.25 25.875 17.25H2.875C1.28718 17.25 0 15.9628 0 14.375V14.375Z" fill="#FF3B3B"/>
</svg>
